<?xml version="1.0" encoding="UTF-8" standalone="no"?>
<svg
   width="78"
   height="97"
   viewBox="0 0 78 97"
   version="1.1"
   id="svg4"
   xmlns="http://www.w3.org/2000/svg"
   xmlns:svg="http://www.w3.org/2000/svg">
  <defs
     id="defs4" />
  <g
     id="g4">
    <path
       d="M 48.08,92.71 40.55,97 H 37.46 L 29.48,92.35 C 18.82,86.13 11.24,80.22 5.09,73.31 L 0,67.6 V 7.42 C 0,12.4 0.41,15.01 1.25,15.36 6.5,17.57 30.06,8.83 36.06,2.44 L 38.35,0 H 59 C 48.55,0 40,0.39 40,0.87 40,2.4 25.25,11.76 19.28,14.02 c -3.18,1.2 -8.4,2.43 -11.6,2.73 L 1.85,17.29 2.18,42.61 2.5,67.93 8,73.5 c 8.15,8.26 21.84,17.73 28.83,19.95 2.13,0.67 2.17,0.49 2.17,-9.38 V 74 h 9.81 c 6.3,0 10.42,-0.45 11.53,-1.26 1.51,-1.1 1.68,-3 1.44,-15.75 L 61.5,42.5 55,41.87 V 35.4 C 55,24.62 50.98,18.66 42.85,17.36 L 39,16.74 V 9.87 C 39,6.09 39.27,3 39.61,3 c 0.33,0 1.47,1.11 2.54,2.46 1.06,1.35 3.71,3.46 5.89,4.68 2.18,1.23 3.96,2.85 3.96,3.6 0,0.83 -0.5,1.08 -1.25,0.65 -0.69,-0.4 -0.46,0.17 0.5,1.27 0.97,1.1 1.45,2.3 1.09,2.67 C 51.97,18.7 52.27,19 53,19 c 0.73,0 1.04,0.3 0.68,0.66 -0.37,0.36 -0.12,1.31 0.53,2.1 1.5,1.8 1.78,3.06 2.62,11.7 0.61,6.35 0.89,7.01 3.17,7.54 2.48,0.57 2.51,0.72 3.4,15.44 0.85,14.09 0.46,17.96 -1.79,17.55 -0.49,-0.09 -1.19,0.34 -1.57,0.95 -0.38,0.61 -1.75,1.31 -3.04,1.56 -1.29,0.25 -2.68,0.8 -3.07,1.23 -0.86,0.91 -1.72,9.27 -0.96,9.27 0.29,0 3.59,-2.02 7.33,-4.48 l 0.4,-0.26 c 6.38,-4.19 8.08,-5.31 8.24,-5.13 0.05,0.07 -0.09,0.31 -0.29,0.63 l -0.04,0.06 C 67.3,79.94 55.62,88.41 48.08,92.71 Z M 49,34.95 V 42 H 39 V 23 h 2.55 c 1.4,0 3.65,1.1 5,2.45 2.14,2.15 2.45,3.36 2.45,9.5 z m -6,25.98 c 0,2.4 -0.43,3.07 -2,3.07 -1.82,0 -2,-0.67 -2,-7.5 0,-6.74 0.2,-7.5 1.93,-7.5 2.23,0 5.07,2.52 5.07,4.5 0,0.75 -0.67,2.03 -1.5,2.86 -0.83,0.82 -1.5,2.88 -1.5,4.57 z"
       fill="#04258e"
       id="path1" />
    <path
       d="m 39,69 v 15.07 c 0,9.87 -0.04,10.05 -2.17,9.38 C 29.84,91.23 16.15,81.76 8,73.5 L 2.5,67.93 2.18,42.61 1.85,17.29 7.68,16.75 c 3.2,-0.3 8.42,-1.53 11.6,-2.73 C 24.77,11.95 37.65,3.89 39.72,1.4 39.61,2.01 39.92,2.8 40.57,3.69 40.13,3.26 39.77,3 39.61,3 39.27,3 39,6.09 39,9.87 v 6.87 l 3.85,0.62 c 6.17,0.99 9.97,4.65 11.44,11.07 C 52.8,22.06 48.93,18.35 42.73,17.34 39.09,16.75 39,16.81 39,19.87 39,22.56 39.36,23 41.55,23 H 39 v 22.5 c 0,2.79 0.39,3.5 1.93,3.5 -1.73,0 -1.93,0.76 -1.93,7.5 0,6.83 0.18,7.5 2,7.5 -1.73,0 -2,0.67 -2,5 z m 24.99,9.43 C 64,78.94 66.7,76.64 70,73.32 l 6,-6.04 v -50 l -5.45,-0.56 c -3,-0.31 -6.26,-1.07 -7.25,-1.68 -1.39,-0.87 -0.55,-0.97 3.7,-0.44 0.78,0.09 1.49,0.18 2.16,0.27 4.54,0.58 6.62,0.85 7.6,-0.07 0.98,-0.9 0.88,-2.97 1.03,-7.05 L 78,2.23 V 82.49 C 78,68.23 77.97,68 76,69.23 c -1.1,0.69 -2,1.72 -2,2.3 0,1.09 -2.22,3.57 -5.59,6.57 0.08,-0.1 0.15,-0.2 0.2,-0.28 l 0.04,-0.06 c 0.2,-0.32 0.34,-0.56 0.29,-0.63 -0.16,-0.18 -1.86,0.94 -8.24,5.13 l -0.4,0.26 C 56.56,84.98 53.26,87 52.97,87 c -0.76,0 0.1,-8.36 0.96,-9.27 0.39,-0.43 1.78,-0.98 3.07,-1.23 1.29,-0.25 2.66,-0.95 3.04,-1.56 0.38,-0.61 1.08,-1.04 1.57,-0.95 2.25,0.41 2.64,-3.46 1.79,-17.55 C 62.51,41.72 62.48,41.57 60,41 57.72,40.47 57.44,39.81 56.83,33.46 55.99,24.82 55.71,23.56 54.21,21.76 53.56,20.97 53.31,20.02 53.68,19.66 54.04,19.3 53.73,19 53,19 52.27,19 51.97,18.7 52.34,18.33 52.7,17.96 52.22,16.76 51.25,15.66 50.29,14.56 50.06,13.99 50.75,14.39 51.5,14.82 52,14.57 52,13.74 52,12.99 50.22,11.37 48.04,10.14 45.88,8.93 43.26,6.85 42.18,5.5 c 3.32,3.22 9.53,7.11 15.82,9.56 4.89,1.9 6,3.26 6,7.4 0,1.99 0.91,9.56 2.02,16.82 1.11,7.27 2.4,17.72 2.87,23.22 l 0.85,10 -2.88,2.5 c -1.58,1.38 -2.87,2.92 -2.87,3.43 z M 39.98,0.97 C 39.99,0.93 40,0.9 40,0.87 40,0.74 40.66,0.61 41.84,0.5 40.88,0.63 40.28,0.78 39.98,0.97 Z m 8.23,91.66 -0.11,0.07 c 1.9,-1.09 4.06,-2.44 6.26,-3.88 -2.09,1.39 -4.17,2.68 -6.15,3.81 z M 55,34.97 v 0.43 6.47 -6.68 z"
       fill="#055eee"
       id="path2" />
    <path
       d="m 63.99,78.43 c 0,-0.51 1.29,-2.05 2.87,-3.43 l 2.88,-2.5 -0.85,-10 C 68.42,57 67.13,46.55 66.02,39.28 64.91,32.02 64,24.45 64,22.46 64,18.32 62.89,16.96 58,15.06 51.71,12.61 45.5,8.72 42.18,5.5 42.17,5.49 42.16,5.47 42.15,5.46 41.6,4.77 41.04,4.14 40.57,3.69 39.92,2.8 39.61,2.01 39.72,1.4 c 0.14,-0.17 0.23,-0.31 0.26,-0.43 0.06,-0.04 0.13,-0.07 0.21,-0.1 0.45,0.61 1.66,1.87 3.06,3.18 5.28,4.9 14.34,9.03 22.66,10.33 0.9,0.14 1.73,0.27 2.5,0.39 -0.45,-0.05 -0.92,-0.11 -1.41,-0.17 -4.25,-0.53 -5.09,-0.43 -3.7,0.44 0.99,0.61 4.25,1.37 7.25,1.68 L 76,17.28 v 50 l -6,6.04 c -3.3,3.32 -6,5.62 -6.01,5.11 z m 9.49,-5.65 C 73.82,72.26 74,71.84 74,71.53 c 0,-0.58 0.9,-1.61 2,-2.3 0.49,-0.3 0.86,-0.52 1.14,-0.45 z M 60.27,84.74 c -3.56,2.67 -7.41,5.2 -11.49,7.57 1.81,-1.05 3.69,-2.23 5.58,-3.49 v 0 c 2,-1.32 4.04,-2.72 5.91,-4.08 z M 78,2.21 v 0.02 l -0.21,5.52 c -0.15,4.08 -0.05,6.15 -1.03,7.05 -0.28,0.27 -0.66,0.43 -1.16,0.52 0.42,-0.1 0.75,-0.27 1.01,-0.51 1.05,-0.96 1.03,-3.1 1.18,-7.14 z"
       fill="#2b95fb"
       id="path3" />
  </g>
  <path
     style="font-variation-settings:'wght' 700;fill:#ffffff;stroke:#000000;stroke-width:0.125683"
     d="m 39.062727,69.875098 c 0.04348,-2.507717 0.126668,-4.258125 0.217735,-4.58157 0.231707,-0.822952 0.580076,-1.060939 1.821755,-1.244525 0.591893,-0.08751 1.161134,-0.229627 1.264979,-0.315812 0.422464,-0.350614 0.573896,-0.918097 0.683192,-2.560225 0.168622,-2.533482 0.565266,-3.603394 2.000002,-5.394829 0.65032,-0.811999 1.043983,-1.840705 0.968066,-2.52971 -0.123781,-1.123398 -1.10923,-2.497618 -2.410337,-3.361243 -0.874922,-0.58074 -1.531361,-0.811838 -2.6783,-0.942891 -1.046416,-0.119568 -1.437547,-0.383692 -1.666171,-1.125143 -0.07606,-0.246683 -0.167603,-1.648468 -0.203419,-3.115075 l -0.06512,-2.666559 h 5.048546 5.048545 l -0.06472,-5.929172 c -0.07076,-6.482481 -0.129326,-7.091732 -0.822191,-8.552992 -0.59259,-1.24978 -1.999391,-2.689219 -3.474482,-3.555093 -1.059285,-0.621797 -2.046063,-0.927856 -3.368193,-1.044679 -2.034431,-0.17976 -2.254698,-0.483847 -2.266463,-3.128931 -0.01169,-2.628423 0.219791,-2.903969 2.211797,-2.632833 2.556998,0.348039 4.290782,0.828525 5.874458,1.627997 3.90008,1.968839 6.356091,5.625069 7.275743,10.831294 0.376873,2.133511 0.504335,4.266275 0.504335,8.438821 v 3.798043 l 0.470569,0.07157 c 0.258813,0.03936 1.712639,0.18997 3.230722,0.33468 1.518086,0.144712 2.766632,0.272756 2.774551,0.284545 0.05458,0.08126 0.318497,17.585891 0.320057,21.228419 0.0035,8.086732 -0.300536,8.921463 -3.470543,9.529596 -2.146673,0.411817 -3.610048,0.480756 -11.404531,0.537264 l -7.890947,0.05721 z"
     id="path4" />
</svg>
