<?xml version="1.0" encoding="UTF-8" standalone="no"?>
<svg
   width="106.64001"
   height="95"
   viewBox="0 0 106.64001 95"
   version="1.1"
   id="svg4"
   xmlns="http://www.w3.org/2000/svg"
   xmlns:svg="http://www.w3.org/2000/svg">
  <defs
     id="defs4" />
  <g
     id="g4"
     transform="translate(6.640013)">
    <path
       d="M 42.22,55.95 C 37.18,57.35 30.29,57.2 25.75,55.57 5.98,48.52 3.56,21.98 21.71,11.32 25.9,8.86 27.51,8.5 34.5,8.52 c 6.28,0.01 8.88,0.48 12.12,2.2 7.82,4.15 13.33,13.15 13.34,21.78 0.01,9.94 -8.21,20.81 -17.74,23.45 z M 25.74,53.84 c 3.67,1.33 15.57,1.48 14.77,0.17 -0.36,-0.57 0.05,-0.73 0.97,-0.38 1.76,0.68 7.97,-3.26 11.47,-7.29 C 60.39,37.79 59.4,23.92 50.79,15.9 44.65,10.18 37.33,8.8 27.4,11.49 19.17,13.72 13.78,19.16 12.11,26.9 c -1.39,6.5 -1.38,7.45 0.07,12.29 1.44,4.81 8.51,13.14 10.51,12.38 0.78,-0.3 1.16,-0.14 0.86,0.36 -0.31,0.49 0.68,1.35 2.19,1.91 z M 0.07,65.25 0,95 V 0 H 77.55 L 65.25,0.11 C 32.54,0.4 30.13,0.55 24.16,2.61 16.57,5.23 11.63,8.97 7.26,15.41 3.09,21.56 1.66,27.03 2.25,34.52 3.51,50.34 16.7,62.84 33.17,63.82 46.18,64.59 56.98,58.36 62.97,46.62 65.99,40.7 66.44,38.88 66.41,32.66 66.38,23.95 64.05,18.18 57.84,11.44 53.95,7.21 49.57,4.57 42,1.88 39.85,1.12 39.97,1.07 42.83,1.49 c 8.26,1.22 17.72,8.91 22.18,18.01 3.4,6.93 3.54,20.69 0.3,27.73 l -2.18,4.73 3.19,2.51 c 1.75,1.38 2.7,2.51 2.1,2.52 -0.59,0.01 -2.14,-1.12 -3.44,-2.51 l -2.37,-2.52 -2.32,2.77 c -2.9,3.47 -4.83,6.72 -3.49,5.9 0.54,-0.34 1.25,0.06 1.57,0.9 0.4,1.04 1.46,1.36 3.35,1.02 l 2.75,-0.5 -5.97,4.8 -2.65,-2.51 C 53.53,62.14 52.91,61.98 50.9,63.05 47.32,64.97 38.93,66.98 34.43,66.99 25.45,67.01 14.43,61.87 8.58,54.91 5.05,50.72 3.26,47.11 1.55,40.77 0.24,35.89 0.13,37.68 0.07,65.25 Z m 0.04,-50 C 0.19,26.48 0.44,29.37 1.06,26.22 3.33,14.71 12.27,5.24 24.5,1.39 28.14,0.25 27.21,0.13 14.25,0.07 L 0,0 Z M 42.06,95 c 27.78,0 41.85,-0.34 41.44,-1 -0.34,-0.55 -0.12,-1 0.49,-1 0.61,0 4.23,-3.17 8.06,-7.05 3.82,-3.88 6.95,-6.42 6.95,-5.66 0,1.93 -4.58,7.59 -9.27,11.46 L 85.78,95 Z"
       fill="#021980"
       id="path1" />
    <path
       d="m 64.56,21.6 c 1.28,3.29 1.84,6.83 1.85,11.06 0.03,6.22 -0.42,8.04 -3.44,13.96 C 56.98,58.36 46.18,64.59 33.17,63.82 16.7,62.84 3.51,50.34 2.25,34.52 1.66,27.03 3.09,21.56 7.26,15.41 11.63,8.97 16.57,5.23 24.16,2.61 28.54,1.1 31.01,0.61 44.98,0.35 41.53,0.55 41.97,0.9 44,1.53 48.4,2.9 51.13,4.14 52.06,5.17 49.03,3.24 45.85,1.94 42.83,1.49 39.97,1.07 39.85,1.12 42,1.88 c 4.22,1.5 7.45,2.99 10.16,4.74 -0.06,0.22 0.04,0.29 0.29,0.19 2.02,1.34 3.75,2.84 5.39,4.63 3.1,3.36 5.23,6.49 6.6,9.86 0,0.15 0.04,0.26 0.12,0.3 z M 42.22,55.95 C 51.75,53.31 59.97,42.44 59.96,32.5 59.95,23.87 54.44,14.87 46.62,10.72 43.38,9 40.78,8.53 34.5,8.52 27.51,8.5 25.9,8.86 21.71,11.32 3.56,21.98 5.98,48.52 25.75,55.57 c 4.54,1.63 11.43,1.78 16.47,0.38 z m 47.15,32.47 c -0.23,0.28 -0.31,0.42 -0.27,0.43 -2.59,2.44 -4.66,4.15 -5.11,4.15 -0.58,0 -0.81,0.41 -0.53,0.93 L 70.75,81.45 C 63.19,74.03 57,67.36 57,66.63 c 0,-0.59 -0.58,-1.62 -1.37,-2.5 0.08,0.07 0.15,0.13 0.22,0.21 l 2.65,2.51 1.72,-1.38 c 0.04,0.12 0.12,0.27 0.24,0.46 0.55,0.9 1.53,0.49 3.59,-1.48 l 2.83,-2.71 9.98,9.23 c 5.49,5.07 10.91,9.88 12.06,10.68 2.5,1.76 2.65,3.97 0.45,6.77 z M 21.34,51.26 C 18.52,49.69 13.38,43.21 12.18,39.19 10.73,34.35 10.72,33.4 12.11,26.9 13.78,19.16 19.17,13.72 27.4,11.49 c 0.41,-0.11 0.81,-0.21 1.21,-0.31 -4.14,1.12 -7.91,3.12 -10.45,5.84 -2.01,2.14 -3.79,4.42 -3.95,5.05 -0.15,0.63 1.23,-0.45 3.08,-2.41 3.7,-3.93 5.87,-4.02 9.73,-0.43 1.84,1.72 2.07,2.64 1.42,5.66 -0.43,1.99 -0.81,6.71 -0.86,10.49 -0.07,6.22 -0.33,7.07 -2.71,8.86 -3.39,2.54 -6.17,1.68 -9.28,-2.9 -2.23,-3.28 -2.38,-3.35 -2.24,-1.01 0.08,1.38 0.32,2.33 0.53,2.12 0.21,-0.21 1.68,1.4 3.26,3.58 1.58,2.19 3.35,3.97 3.93,3.97 0.57,0 0.73,0.52 0.33,1.15 -0.02,0.04 -0.04,0.08 -0.06,0.11 z m 39.19,13.96 3.94,-3.17 -2.75,0.5 c -1.89,0.34 -2.95,0.02 -3.35,-1.02 -0.32,-0.84 -1.03,-1.24 -1.57,-0.9 -1.34,0.82 0.59,-2.43 3.49,-5.9 l 2.32,-2.77 2.37,2.52 c 1.3,1.39 2.85,2.52 3.44,2.51 0.6,-0.01 -0.35,-1.14 -2.1,-2.52 l -0.07,-0.06 c 0.91,0.54 1.94,0.93 2.67,0.98 2.06,0.12 27.28,21.19 29.84,24.78 -0.74,0.21 -3.11,2.19 -5.98,5.05 2.35,-2.5 4.19,-4.73 4.15,-5.07 C 96.89,79.79 92.82,76.12 87.89,72 82.96,67.88 76.97,62.66 74.59,60.42 70.76,56.81 70.05,56.49 68.44,57.67 67.44,58.4 67.02,59 67.51,59 c 0.48,0 -0.63,1.56 -2.47,3.46 -1.85,1.9 -3.81,3.19 -4.35,2.85 -0.06,-0.04 -0.11,-0.07 -0.16,-0.09 z M 19.4,40.49 c 0.9,1.38 2.07,2.51 2.59,2.51 1.6,0 2.95,-3.48 1.96,-5.05 -1.46,-2.3 -1.1,-8.84 0.7,-12.62 1.51,-3.19 1.51,-3.59 0.03,-5.08 -1.49,-1.49 -1.78,-1.47 -3.61,0.19 -4.36,3.95 -5.25,14.58 -1.67,20.05 z m 6.34,13.35 c -1.51,-0.56 -2.5,-1.42 -2.19,-1.91 0.3,-0.5 -0.08,-0.66 -0.86,-0.36 -0.2,0.07 -0.44,0.06 -0.72,-0.03 1.42,-0.61 4.16,0.45 3.52,1.47 -0.27,0.44 0.48,0.55 1.66,0.24 1.19,-0.31 1.91,-0.16 1.6,0.34 -0.32,0.52 2.66,0.83 6.95,0.72 1.99,-0.05 3.53,-0.13 4.82,-0.28 0.68,1.28 -11.13,1.14 -14.78,-0.19 z M 67.28,39.77 c 0.76,-5.76 0.36,-12.49 -1.16,-17.43 1.14,2.28 2.01,8.5 1.64,13.68 -0.08,1.14 -0.25,2.44 -0.48,3.75 z M 51.71,16.8 c 3.2,3.36 5.2,7.58 5.92,11.96 -0.81,-4.33 -2.99,-8.64 -5.92,-11.96 z m 11.65,-0.25 c -2.26,-3.6 -5.25,-6.86 -8.54,-9.43 2.6,1.55 6.52,5.94 8.54,9.43 z M 42.06,95 H 0 l 42.25,-0.02 13.4,-0.01 C 51.56,94.99 47.03,95 42.06,95 Z M 70.17,0.07 77.55,0 H 100 Z m -5.65,52.98 -1.39,-1.09 1.02,-2.21 c -0.71,1.84 -0.57,2.38 0.37,3.3 z M 55.34,42.91 c -0.67,1.22 -1.46,2.37 -2.39,3.43 -1.28,1.47 -2.91,2.92 -4.56,4.15 3.08,-2.34 5.38,-4.83 6.95,-7.58 z m 43.63,37.68 c 0.02,0.87 -1.3,2.88 -3.19,5.12 1.75,-2.1 2.98,-4.01 3.19,-5.12 z M 51.77,62.63 c -0.26,0.11 -0.55,0.25 -0.87,0.42 0.32,-0.17 0.61,-0.31 0.87,-0.42 z"
       fill="#138eef"
       id="path2" />
    <path
       d="m 21.34,51.26 c 0.02,-0.03 0.04,-0.07 0.06,-0.11 0.4,-0.63 0.24,-1.15 -0.33,-1.15 -0.58,0 -2.35,-1.78 -3.93,-3.97 -1.58,-2.18 -3.05,-3.79 -3.26,-3.58 -0.21,0.21 -0.45,-0.74 -0.53,-2.12 -0.14,-2.34 0.01,-2.27 2.24,1.01 3.11,4.58 5.89,5.44 9.28,2.9 2.38,-1.79 2.64,-2.64 2.71,-8.86 0.05,-3.78 0.43,-8.5 0.86,-10.49 0.65,-3.02 0.42,-3.94 -1.42,-5.66 -3.86,-3.59 -6.03,-3.5 -9.73,0.43 -1.85,1.96 -3.23,3.04 -3.08,2.41 0.16,-0.63 1.94,-2.91 3.95,-5.05 2.54,-2.72 6.31,-4.72 10.45,-5.84 9.32,-2.26 16.29,-0.77 22.18,4.72 0.32,0.29 0.62,0.59 0.92,0.9 2.93,3.32 5.11,7.63 5.92,11.96 0.81,4.85 0.07,9.88 -2.29,14.15 -1.57,2.75 -3.87,5.24 -6.95,7.58 -2.87,2.13 -5.79,3.57 -6.91,3.14 -0.92,-0.35 -1.33,-0.19 -0.97,0.38 0,0.01 0,0.01 0.01,0.02 -1.29,0.15 -2.83,0.23 -4.82,0.28 -4.29,0.11 -7.27,-0.2 -6.95,-0.72 0.31,-0.5 -0.41,-0.65 -1.6,-0.34 -1.18,0.31 -1.93,0.2 -1.66,-0.24 0.64,-1.02 -2.1,-2.08 -3.52,-1.47 -0.2,-0.06 -0.41,-0.15 -0.63,-0.28 z m 68.03,37.16 c 2.2,-2.8 2.05,-5.01 -0.45,-6.77 -1.15,-0.8 -6.57,-5.61 -12.06,-10.68 l -9.98,-9.23 -2.83,2.71 c -2.06,1.97 -3.04,2.38 -3.59,1.48 -0.12,-0.19 -0.2,-0.34 -0.24,-0.46 l 0.31,-0.25 c 0.05,0.02 0.1,0.05 0.16,0.09 0.54,0.34 2.5,-0.95 4.35,-2.85 1.84,-1.9 2.95,-3.46 2.47,-3.46 -0.49,0 -0.07,-0.6 0.93,-1.33 1.61,-1.18 2.32,-0.86 6.15,2.75 2.38,2.24 8.37,7.46 13.3,11.58 4.93,4.12 9,7.79 9.04,8.15 0.04,0.34 -1.8,2.57 -4.15,5.07 -0.24,0.24 -0.49,0.48 -0.73,0.73 -1.02,1.03 -2.02,2.01 -2.95,2.9 -0.04,-0.01 0.04,-0.15 0.27,-0.43 z M 51.93,22.28 c 1.89,2.03 3.58,3.54 3.77,3.35 0.18,-0.18 -0.49,-2.19 -1.51,-4.45 -1.85,-4.13 -4.97,-7.21 -8.69,-8.57 l -2,-0.73 2,2.05 c 5.46,5.6 6.95,7.4 5,6.05 -1.1,-0.77 -0.46,0.27 1.43,2.3 z"
       fill="#64d3fc"
       id="path3" />
    <path
       style="font-variation-settings:'wght' 700;fill:#ffffff;stroke:#000000;stroke-width:0.174077"
       d="m 20.667979,41.885771 c -1.161445,-1.186967 -2.37882,-3.500814 -2.834232,-5.386986 -1.252354,-5.186851 -0.271112,-11.438602 2.33767,-14.893908 0.869195,-1.15124 2.315851,-2.312662 2.880631,-2.312662 0.490325,0 2.032389,1.35504 2.440758,2.144738 0.348542,0.674007 0.205508,1.344869 -0.731018,3.42865 -1.963234,4.368216 -2.387382,9.805752 -1.005396,12.889096 0.541148,1.207354 0.50498,2.408348 -0.110837,3.680456 -0.381985,0.789076 -1.192125,1.492258 -1.720921,1.493718 -0.129439,3.58e-4 -0.694933,-0.469039 -1.256655,-1.043102 z"
       id="path4" />
    <path
       style="font-variation-settings:'wght' 700;fill:#ffffff;stroke:#000000;stroke-width:0.174077"
       d="M 52.951761,23.083978 C 50.612207,20.741307 49.980312,19.952965 50.663789,20.22954 l 0.521411,0.210994 c 0.825217,0.333932 -0.216044,-0.9241 -4.295102,-5.189256 -1.622725,-1.696759 -2.913579,-3.085016 -2.868564,-3.085016 0.271551,0 2.986434,1.202252 3.861395,1.709971 1.487698,0.863276 4.011081,3.4547 5.099929,5.237448 0.973397,1.59372 2.699436,5.749088 2.586863,6.227767 -0.05019,0.213402 -0.771773,-0.408823 -2.61796,-2.25747 z"
       id="path5" />
  </g>
</svg>
